<mxfile host="Electron" modified="2024-09-13T13:37:19.060Z" agent="Mozilla/5.0 (Windows NT 10.0; Win64; x64) AppleWebKit/537.36 (KHTML, like Gecko) draw.io/22.1.18 Chrome/120.0.6099.199 Electron/28.1.2 Safari/537.36" etag="Bo4BYxVh6RNZkzLDfG4M" version="22.1.18" type="device">
  <diagram name="Page-1" id="52a04d89-c75d-2922-d76d-85b35f80e030">
    <mxGraphModel dx="1434" dy="836" grid="1" gridSize="10" guides="1" tooltips="1" connect="1" arrows="1" fold="1" page="1" pageScale="1" pageWidth="1100" pageHeight="850" background="none" math="0" shadow="0">
      <root>
        <mxCell id="0" />
        <mxCell id="1" parent="0" />
        <mxCell id="yICxhFcHqYL37P6pbiV4-13" style="edgeStyle=orthogonalEdgeStyle;rounded=0;orthogonalLoop=1;jettySize=auto;html=1;entryX=0.5;entryY=1;entryDx=0;entryDy=0;" parent="1" source="yICxhFcHqYL37P6pbiV4-1" target="6LPIibJHJ9VHaMosb8D2-2" edge="1">
          <mxGeometry relative="1" as="geometry">
            <mxPoint x="375" y="360" as="targetPoint" />
          </mxGeometry>
        </mxCell>
        <mxCell id="yICxhFcHqYL37P6pbiV4-14" style="edgeStyle=orthogonalEdgeStyle;rounded=0;orthogonalLoop=1;jettySize=auto;html=1;entryX=0.5;entryY=1;entryDx=0;entryDy=0;" parent="1" source="yICxhFcHqYL37P6pbiV4-1" target="6LPIibJHJ9VHaMosb8D2-1" edge="1">
          <mxGeometry relative="1" as="geometry">
            <mxPoint x="715" y="360" as="targetPoint" />
          </mxGeometry>
        </mxCell>
        <mxCell id="6LPIibJHJ9VHaMosb8D2-4" style="edgeStyle=orthogonalEdgeStyle;rounded=0;orthogonalLoop=1;jettySize=auto;html=1;exitX=0;exitY=0.5;exitDx=0;exitDy=0;exitPerimeter=0;entryX=0.5;entryY=0;entryDx=0;entryDy=0;" parent="1" source="yICxhFcHqYL37P6pbiV4-1" target="6LPIibJHJ9VHaMosb8D2-3" edge="1">
          <mxGeometry relative="1" as="geometry" />
        </mxCell>
        <mxCell id="yICxhFcHqYL37P6pbiV4-1" value="Dashboard" style="strokeWidth=2;html=1;shape=mxgraph.flowchart.decision;whiteSpace=wrap;fillColor=#f8cecc;strokeColor=#b85450;" parent="1" vertex="1">
          <mxGeometry x="495" y="420" width="100" height="100" as="geometry" />
        </mxCell>
        <mxCell id="yICxhFcHqYL37P6pbiV4-10" style="edgeStyle=orthogonalEdgeStyle;rounded=0;orthogonalLoop=1;jettySize=auto;html=1;entryX=0.5;entryY=0;entryDx=0;entryDy=0;" parent="1" source="yICxhFcHqYL37P6pbiV4-3" target="yICxhFcHqYL37P6pbiV4-5" edge="1">
          <mxGeometry relative="1" as="geometry" />
        </mxCell>
        <mxCell id="yICxhFcHqYL37P6pbiV4-3" value="Login" style="strokeWidth=2;html=1;shape=mxgraph.flowchart.terminator;whiteSpace=wrap;fillColor=#f5f5f5;strokeColor=#666666;gradientColor=#b3b3b3;" parent="1" vertex="1">
          <mxGeometry x="495" y="160" width="100" height="60" as="geometry" />
        </mxCell>
        <mxCell id="yICxhFcHqYL37P6pbiV4-5" value="Authentication" style="rounded=1;whiteSpace=wrap;html=1;absoluteArcSize=1;arcSize=14;strokeWidth=2;fillColor=#dae8fc;strokeColor=#6c8ebf;" parent="1" vertex="1">
          <mxGeometry x="495" y="290" width="100" height="60" as="geometry" />
        </mxCell>
        <mxCell id="yICxhFcHqYL37P6pbiV4-9" value="Logout" style="strokeWidth=2;html=1;shape=mxgraph.flowchart.terminator;whiteSpace=wrap;fillColor=#f5f5f5;strokeColor=#666666;gradientColor=#b3b3b3;" parent="1" vertex="1">
          <mxGeometry x="495" y="610" width="100" height="60" as="geometry" />
        </mxCell>
        <mxCell id="yICxhFcHqYL37P6pbiV4-12" style="edgeStyle=orthogonalEdgeStyle;rounded=0;orthogonalLoop=1;jettySize=auto;html=1;exitX=0.5;exitY=1;exitDx=0;exitDy=0;entryX=0.5;entryY=0;entryDx=0;entryDy=0;entryPerimeter=0;" parent="1" source="yICxhFcHqYL37P6pbiV4-5" target="yICxhFcHqYL37P6pbiV4-1" edge="1">
          <mxGeometry relative="1" as="geometry">
            <mxPoint x="545" y="360" as="sourcePoint" />
          </mxGeometry>
        </mxCell>
        <mxCell id="yICxhFcHqYL37P6pbiV4-15" style="edgeStyle=orthogonalEdgeStyle;rounded=0;orthogonalLoop=1;jettySize=auto;html=1;exitX=0.5;exitY=1;exitDx=0;exitDy=0;exitPerimeter=0;entryX=0.5;entryY=0;entryDx=0;entryDy=0;entryPerimeter=0;" parent="1" source="yICxhFcHqYL37P6pbiV4-1" target="yICxhFcHqYL37P6pbiV4-9" edge="1">
          <mxGeometry relative="1" as="geometry" />
        </mxCell>
        <mxCell id="6LPIibJHJ9VHaMosb8D2-1" value="Pomodoro" style="rounded=1;whiteSpace=wrap;html=1;absoluteArcSize=1;arcSize=14;strokeWidth=2;fillColor=#f8cecc;strokeColor=#b85450;" parent="1" vertex="1">
          <mxGeometry x="665" y="290" width="100" height="60" as="geometry" />
        </mxCell>
        <mxCell id="6LPIibJHJ9VHaMosb8D2-2" value="Notes" style="rounded=1;whiteSpace=wrap;html=1;absoluteArcSize=1;arcSize=14;strokeWidth=2;fillColor=#f8cecc;strokeColor=#b85450;" parent="1" vertex="1">
          <mxGeometry x="335" y="290" width="100" height="60" as="geometry" />
        </mxCell>
        <mxCell id="6LPIibJHJ9VHaMosb8D2-3" value="To Do" style="rounded=1;whiteSpace=wrap;html=1;absoluteArcSize=1;arcSize=14;strokeWidth=2;fillColor=#f8cecc;strokeColor=#b85450;" parent="1" vertex="1">
          <mxGeometry x="335" y="550" width="100" height="60" as="geometry" />
        </mxCell>
      </root>
    </mxGraphModel>
  </diagram>
</mxfile>
